<svg xmlns="http://www.w3.org/2000/svg" viewBox="0 0 1853 1269" role="img" aria-labelledby="t d">
<title id="t">Gyan Path Shiksha Evam Samaj Kalyan Samiti logo</title>
<desc id="d">Community figures logo in navy blue and terracotta red.</desc>
<path d="M 1026,815 1016,810 973,896 929,961 831,1065 671,1184 651,1189 574,1235 577,1250 682,1261 824,1250 895,1233 975,1189 1018,1141 1024,1122 1036,1109 1052,1053 1052,917 Z" fill="#233B82"/>
<path d="M 1332,52 1067,296 1046,281 979,80 963,67 947,212 884,429 752,676 661,789 545,901 544,935 567,969 622,978 669,967 770,916 957,780 1086,658 1228,418 1290,235 Z" fill="#233B82"/>
<path d="M 651,13 611,24 561,56 516,108 502,137 488,205 489,234 482,242 483,305 489,322 488,350 505,403 517,422 516,431 556,487 612,526 629,532 685,534 712,526 746,505 798,443 826,344 826,229 798,125 760,62 703,18 Z" fill="#233B82"/>
<path d="M 1484,1031 1478,1028 1459,1029 1430,1045 1419,1045 1412,1051 1404,1051 1400,1057 1369,1063 1362,1068 1345,1069 1338,1074 1279,1080 1128,1079 1119,1074 1103,1074 1097,1078 1097,1091 1167,1150 1174,1150 1193,1167 1226,1184 1236,1184 1255,1195 1278,1196 1286,1201 1349,1201 1372,1195 1397,1178 1403,1179 1439,1142 1445,1129 1456,1118 1462,1095 1473,1078 1473,1067 1484,1046 Z" fill="#A44755"/>
<path d="M 554,623 510,644 428,734 381,769 358,743 324,634 311,635 276,802 243,896 157,1040 23,1186 22,1214 36,1229 65,1229 180,1189 229,1161 310,1099 397,1013 460,915 500,823 550,682 Z" fill="#A44755"/>
<path d="M 133,536 122,537 117,542 94,543 45,584 44,592 33,601 22,622 22,631 16,636 16,649 11,654 11,669 6,676 6,742 10,748 11,768 16,772 16,784 28,802 27,809 58,844 64,844 70,851 76,850 81,856 95,861 134,861 140,856 156,856 172,845 183,843 182,837 190,828 199,828 200,818 211,807 217,790 228,779 228,757 234,750 234,739 238,734 234,727 240,720 240,673 234,665 234,638 229,633 229,622 223,608 217,603 217,594 182,554 159,542 139,542 Z" fill="#A44755"/>
<path d="M 1852,573 1834,570 1633,644 1626,637 1630,505 1621,503 1515,643 1435,723 1361,780 1173,859 1159,873 1159,913 1187,928 1266,935 1368,930 1438,918 1551,874 1623,828 1719,743 1812,645 Z" fill="#A44755"/>
<path d="M 1450,344 1430,344 1423,350 1406,350 1401,355 1393,356 1390,361 1371,367 1334,398 1335,404 1318,420 1317,428 1311,435 1312,444 1306,450 1306,462 1300,469 1300,508 1297,511 1300,517 1300,553 1306,558 1306,567 1311,571 1312,585 1325,601 1355,624 1372,624 1377,629 1386,629 1395,624 1412,624 1420,618 1429,619 1441,607 1448,608 1453,601 1459,600 1473,580 1501,552 1501,547 1507,542 1507,535 1513,531 1513,523 1518,520 1518,513 1524,506 1524,484 1529,476 1529,447 1524,439 1524,416 1518,410 1519,401 1513,394 1513,387 1493,361 1484,355 1474,355 1467,349 1456,349 Z" fill="#A44755"/>
</svg>